<svg xmlns="http://www.w3.org/2000/svg" viewBox="0 0 640 520"><defs><linearGradient id="g" x1="0" y1="0" x2="1" y2="1"><stop stop-color="#d9238f"/><stop offset="1" stop-color="#4b126d"/></linearGradient></defs><rect width="640" height="520" rx="40" fill="#fbf7ff"/><circle cx="500" cy="110" r="90" fill="#d9238f" opacity=".12"/><circle cx="130" cy="420" r="130" fill="#4b126d" opacity=".10"/><path d="M310 95c92 0 168 74 168 166S402 427 310 427 144 353 144 261 218 95 310 95Z" fill="#fff"/><path d="M250 190c48 50 98 50 146 0" stroke="url(#g)" stroke-width="18" stroke-linecap="round" fill="none"/><circle cx="260" cy="250" r="48" fill="#4b126d"/><circle cx="368" cy="250" r="48" fill="#d9238f"/><path d="M190 380c26-78 110-92 155-32 49-60 132-44 156 32" fill="url(#g)" opacity=".9"/><path d="M170 135h70M418 140h70M452 358h55" stroke="#d9238f" stroke-width="15" stroke-linecap="round" opacity=".35"/></svg>