<svg xmlns="http://www.w3.org/2000/svg" viewBox="0 0 640 500"><defs><linearGradient id="g" x1="0" y1="0" x2="1" y2="1"><stop stop-color="#6e1a92"/><stop offset="1" stop-color="#d9238f"/></linearGradient><filter id="s"><feDropShadow dx="0" dy="20" stdDeviation="16" flood-color="#4b126d" flood-opacity=".18"/></filter></defs><rect width="640" height="500" rx="42" fill="#f7f2fb"/><circle cx="520" cy="100" r="100" fill="#6e1a92" opacity=".12"/><circle cx="105" cy="410" r="120" fill="#d9238f" opacity=".10"/><rect x="90" y="86" width="460" height="310" rx="34" fill="#fff" filter="url(#s)"/><rect x="125" y="125" width="390" height="50" rx="16" fill="#eef5ff"/><rect x="125" y="205" width="170" height="120" rx="24" fill="url(#g)"/><rect x="325" y="205" width="170" height="24" rx="10" fill="#e9d7f1"/><rect x="325" y="250" width="130" height="24" rx="10" fill="#dbe6f4"/><rect x="325" y="295" width="160" height="24" rx="10" fill="#dbe6f4"/><path d="178 250l52-26 52 26-52 26-52-26M197 264v34c20 18 48 18 66 0v-34" fill="none" stroke="#fff" stroke-width="18" stroke-linecap="round" stroke-linejoin="round"/><text x="320" y="445" text-anchor="middle" font-family="Inter,Arial" font-size="28" font-weight="900" fill="#4b126d">Education Software</text></svg>