<svg xmlns="http://www.w3.org/2000/svg" viewBox="0 0 120 120" role="img" aria-label="Shestrong Technology Services logo"><defs><linearGradient id="g" x1="0" x2="1" y1="0" y2="1"><stop offset="0" stop-color="#d9238f"/><stop offset="1" stop-color="#4b126d"/></linearGradient></defs><rect width="120" height="120" rx="32" fill="url(#g)"/><path d="M71 26c-13 1-23 9-26 21-12 3-21 14-21 27 0 15 12 27 27 27 17 0 30-14 29-31 10-5 16-15 16-26 0-7-3-14-7-19-4 8-10 13-18 14 2-4 2-9 0-13Z" fill="#fff" opacity=".93"/><path d="M45 71c11 5 26 3 36-8" fill="none" stroke="#ffb6df" stroke-width="8" stroke-linecap="round"/><circle cx="55" cy="52" r="8" fill="#4b126d" opacity=".82"/><circle cx="75" cy="48" r="6" fill="#d9238f" opacity=".85"/></svg>