<svg xmlns="http://www.w3.org/2000/svg" viewBox="0 0 760 620"><defs><linearGradient id="a" x1="0" y1="0" x2="1" y2="1"><stop stop-color="#d9238f"/><stop offset="1" stop-color="#4b126d"/></linearGradient><linearGradient id="b" x1="0" y1="0" x2="1" y2="1"><stop stop-color="#eef5ff"/><stop offset="1" stop-color="#fff"/></linearGradient><filter id="s" x="-20%" y="-20%" width="140%" height="140%"><feDropShadow dx="0" dy="20" stdDeviation="18" flood-color="#4b126d" flood-opacity=".18"/></filter></defs><rect x="50" y="40" width="660" height="500" rx="42" fill="url(#b)"/><circle cx="122" cy="120" r="70" fill="#d9238f" opacity=".12"/><circle cx="640" cy="460" r="120" fill="#4b126d" opacity=".10"/><g filter="url(#s)"><rect x="120" y="104" width="520" height="334" rx="28" fill="#fff"/><rect x="150" y="140" width="460" height="50" rx="16" fill="#f7f2fb"/><rect x="150" y="218" width="210" height="160" rx="22" fill="url(#a)" opacity=".92"/><rect x="385" y="218" width="225" height="35" rx="12" fill="#e9d7f1"/><rect x="385" y="272" width="180" height="24" rx="10" fill="#dbe6f4"/><rect x="385" y="312" width="210" height="24" rx="10" fill="#dbe6f4"/><rect x="385" y="352" width="150" height="24" rx="10" fill="#dbe6f4"/></g><g><circle cx="253" cy="282" r="46" fill="#2f164a"/><path d="M211 372c14-50 76-55 99 0" fill="#d9238f"/><path d="M232 286c18 16 42 15 58 0" stroke="#ffd6ef" stroke-width="8" stroke-linecap="round" fill="none"/><circle cx="238" cy="270" r="5" fill="#fff"/><circle cx="278" cy="270" r="5" fill="#fff"/></g><g><path d="M114 486c90-28 154-24 248 0" stroke="#4b126d" stroke-width="18" stroke-linecap="round" opacity=".16"/><rect x="182" y="430" width="130" height="78" rx="20" fill="#fff" filter="url(#s)"/><path d="M213 462h68M213 482h42" stroke="#d9238f" stroke-width="10" stroke-linecap="round"/></g><g><rect x="500" y="432" width="132" height="94" rx="24" fill="#fff" filter="url(#s)"/><path d="M534 474l22 22 44-52" stroke="url(#a)" stroke-width="13" stroke-linecap="round" stroke-linejoin="round" fill="none"/></g></svg>